<?xml version="1.0" encoding="UTF-8"?>
<svg version="1.1" xmlns="http://www.w3.org/2000/svg" width="512" height="512">
<path d="M0 0 C21.03416131 18.36163076 35.44723657 41.20762499 38.60253906 69.39892578 C39.88239904 91.10099595 35.95745137 110.09936781 28.60253906 130.39892578 C29.34375 130.66189453 30.08496094 130.92486328 30.84863281 131.19580078 C38.21876654 134.41566062 43.52732525 140.81161105 46.79003906 148.02392578 C49.85852294 160.76993572 48.60899257 171.92091221 42.42675781 183.47705078 C37.02719179 192.12560622 29.13417103 200.27029073 19.5637207 204.24584961 C17.1388478 205.67155292 16.8098782 206.58019955 15.96191406 209.22314453 C15.70047607 209.99698486 15.43903809 210.7708252 15.16967773 211.56811523 C14.90002197 212.39915771 14.63036621 213.2302002 14.35253906 214.08642578 C10.15924065 226.14144868 4.9063769 236.50429037 -2.83496094 246.64892578 C-7.19250495 252.36261544 -8.89927649 257.16687814 -8.39746094 264.39892578 C-7.33168823 264.80159668 -7.33168823 264.80159668 -6.24438477 265.21240234 C-3.31680581 266.43254073 -0.61902765 267.84360267 2.15332031 269.38330078 C3.23170166 269.98142578 4.31008301 270.57955078 5.42114258 271.19580078 C6.58592407 271.84657524 7.75055229 272.4976241 8.91503906 273.14892578 C9.51178436 273.48150391 10.10852966 273.81408203 10.72335815 274.15673828 C21.07463409 279.9269281 31.33106826 285.85070442 41.54785156 291.85595703 C45.77709974 294.339548 50.02307781 296.79118903 54.28222656 299.22314453 C98.42955832 324.43110877 98.42955832 324.43110877 103.60253906 342.39892578 C104.46247164 348.31283191 104.2845807 354.31347785 104.23144531 360.27392578 C104.23227572 361.97355298 104.23474157 363.67318007 104.23875427 365.37280273 C104.24159345 368.90959249 104.22708457 372.44574225 104.19946289 375.98242188 C104.16517266 380.51313369 104.17148503 385.04271842 104.19012547 389.57348633 C104.20068672 393.07197481 104.19176923 396.57020053 104.17674065 400.06866455 C104.17156595 401.74000265 104.17203199 403.41136823 104.1782856 405.08270264 C104.18373579 407.41137034 104.16337986 409.73841226 104.13598633 412.06689453 C104.14251221 412.75366776 104.14903809 413.44044098 104.15576172 414.14802551 C104.08954765 417.45781206 103.78043111 419.16377399 101.76060486 421.83374023 C98.86926859 423.93074661 97.09918705 423.84530638 93.60253906 423.39892578 C92.61253906 422.73892578 91.62253906 422.07892578 90.60253906 421.39892578 C87.79644601 421.20294116 85.09201709 421.11887732 82.28613281 421.13330078 C81.47386734 421.13138733 80.66160187 421.12947388 79.82472229 421.12750244 C78.10913788 421.12614231 76.39354311 421.12982675 74.67797852 421.13818359 C72.04647837 421.14889956 69.41565877 421.13827558 66.78417969 421.12548828 C65.11816255 421.12680964 63.45214584 421.12937153 61.78613281 421.13330078 C60.99653671 421.12925232 60.20694061 421.12520386 59.39341736 421.12103271 C55.03113251 420.99032631 55.03113251 420.99032631 51.60253906 423.39892578 C48.10253906 423.64892578 48.10253906 423.64892578 44.60253906 423.39892578 C43.94253906 422.73892578 43.28253906 422.07892578 42.60253906 421.39892578 C39.60089552 421.200855 36.69138022 421.12978878 33.68849182 421.1449585 C32.28640336 421.14027852 32.28640336 421.14027852 30.85598987 421.13550401 C27.70446738 421.1274873 24.55313547 421.13386194 21.40161133 421.14013672 C19.15005378 421.13742847 16.89849711 421.13386848 14.64694214 421.1295166 C8.5168674 421.12037007 2.38685969 421.1239463 -3.74321628 421.13027477 C-10.14668893 421.1353237 -16.55015568 421.13064636 -22.95362854 421.12750244 C-34.39989817 421.12362565 -45.84613054 421.12985788 -57.29239387 421.14002112 C-67.67549455 421.14895491 -78.05855052 421.14740694 -88.44165039 421.13818359 C-100.49043916 421.12748567 -112.53919414 421.12349397 -124.58798939 421.12940812 C-130.96918217 421.13253183 -137.35034413 421.13292626 -143.73153496 421.12633514 C-149.73065264 421.12057204 -155.7296856 421.12453959 -161.7287941 421.13612366 C-163.93512519 421.13877591 -166.14146337 421.13799557 -168.34779167 421.13359833 C-171.35076851 421.12816366 -174.35347088 421.13495175 -177.35643005 421.1449585 C-178.23735445 421.14049705 -179.11827885 421.13603561 -180.02589792 421.13143897 C-185.0075593 421.15451503 -185.0075593 421.15451503 -189.39746094 423.39892578 C-193.47236846 423.73850141 -194.92747365 423.71225064 -198.39746094 421.39892578 C-201.20355399 421.20294116 -203.90798291 421.11887732 -206.71386719 421.13330078 C-207.52613266 421.13138733 -208.33839813 421.12947388 -209.17527771 421.12750244 C-210.89086212 421.12614231 -212.60645689 421.12982675 -214.32202148 421.13818359 C-216.95352163 421.14889956 -219.58434123 421.13827558 -222.21582031 421.12548828 C-223.88183745 421.12680964 -225.54785416 421.12937153 -227.21386719 421.13330078 C-228.00346329 421.12925232 -228.79305939 421.12520386 -229.60658264 421.12103271 C-233.96886749 420.99032631 -233.96886749 420.99032631 -237.39746094 423.39892578 C-240.77246094 423.83642578 -240.77246094 423.83642578 -244.39746094 423.39892578 C-247.22937331 420.70313181 -248.30102403 419.02630739 -248.89866638 415.13827515 C-248.89883255 413.90348419 -248.89899872 412.66869324 -248.89916992 411.39648438 C-248.90457291 410.71116638 -248.90997589 410.02584839 -248.9155426 409.31976318 C-248.92801237 407.0618521 -248.91154188 404.80522162 -248.89355469 402.54736328 C-248.89370983 400.96660292 -248.89520125 399.38584218 -248.89796448 397.80508423 C-248.89934805 394.49130436 -248.88680637 391.17795746 -248.86401367 387.86425781 C-248.83576845 383.64468485 -248.83832872 379.42583851 -248.85110378 375.206213 C-248.85810994 371.93907627 -248.85021357 368.67210316 -248.83784676 365.40498734 C-248.8333701 363.85107682 -248.83296186 362.29714848 -248.83691216 360.74323654 C-248.8554697 347.00858048 -247.452944 335.4078525 -238.08496094 324.77392578 C-230.99589232 318.50916747 -223.17296918 313.72566171 -215.02246094 308.96142578 C-213.82861626 308.25946764 -212.63493448 307.55723239 -211.44140625 306.85473633 C-193.23896745 296.15665999 -174.92544122 285.65325985 -156.52636719 275.29736328 C-153.31474857 273.48781636 -150.11317688 271.66318297 -146.92480469 269.81298828 C-146.26577148 269.43134521 -145.60673828 269.04970215 -144.92773438 268.65649414 C-143.23200275 267.67181055 -141.53919883 266.68208969 -139.84667969 265.69189453 C-137.39746094 264.39892578 -137.39746094 264.39892578 -135.39746094 264.39892578 C-135.15319862 256.36880197 -136.76581535 252.31809093 -142.01464844 246.36376953 C-150.2074556 236.16976849 -161.39746094 217.77636409 -161.39746094 204.39892578 C-162.27660156 204.14111328 -163.15574219 203.88330078 -164.06152344 203.61767578 C-174.56654738 199.77977476 -183.01661055 191.15219552 -187.96386719 181.27001953 C-192.76053654 170.13245393 -194.54122435 158.39562298 -190.42480469 146.67236328 C-186.74827688 138.53647284 -180.81388509 134.0891545 -173.39746094 129.39892578 C-173.79578125 128.27357422 -174.19410156 127.14822266 -174.60449219 125.98876953 C-179.23024279 112.68299401 -182.69623958 99.55483198 -183.39746094 85.39892578 C-183.43871094 84.62806641 -183.47996094 83.85720703 -183.52246094 83.06298828 C-184.2746759 54.76090025 -172.69207306 29.25251266 -153.66308594 8.73486328 C-114.10586576 -32.04999477 -43.89547861 -36.93225448 0 0 Z " fill="#020101" transform="translate(266.3974609375,84.60107421875)"/>
<path d="M0 0 C1.72070312 1.03808594 1.72070312 1.03808594 3 3 C3.29531821 5.64212361 3.41721473 8.0605525 3.40625 10.703125 C3.41708618 11.45914001 3.42792236 12.21515503 3.43908691 12.99407959 C3.47335797 15.41280617 3.48893265 17.83106263 3.5 20.25 C3.51464247 23.42232248 3.54851354 26.59360732 3.59375 29.765625 C3.59072876 30.48566711 3.58770752 31.20570923 3.58459473 31.9475708 C3.67910253 38.40177599 5.18342095 42.90394725 9.4375 47.8125 C14.24295773 51.91472002 17.93643527 52.52155571 24.17578125 52.36328125 C28.80946225 51.76724759 31.68366936 50.24613656 35 47 C40.28084933 38.74974452 39.56942096 28.9641235 39.5625 19.5625 C39.56611293 17.23504843 39.57561354 14.90833568 39.60325623 12.58103943 C39.62000393 11.14319766 39.62295173 9.70511033 39.61024475 8.26722717 C39.64039781 5.42774392 39.6844725 3.46493505 41.30444336 1.07788086 C43.67438936 -0.42871548 45.86561935 -0.65399363 48.63671875 -0.52734375 C59.47453201 1.89101128 69.32390424 12.38896672 75.328125 21.328125 C85.32855729 37.29765001 88.17764045 55.66826432 84 74 C80.59591957 85.47055894 75.62198385 95.05481848 66.33763123 102.69018555 C61.56706445 107.13725447 59.96885194 110.89642503 59.66615295 117.38598633 C59.58926597 120.70561045 59.6498602 124.01282037 59.72290039 127.33203125 C59.72268881 129.16800602 59.71756902 131.00398573 59.70794678 132.8399353 C59.69783114 136.77538496 59.72219849 140.70852918 59.7740345 144.64364624 C59.85601571 150.87316028 59.86096635 157.10133405 59.85630798 163.33129883 C59.85812819 173.18872786 59.91238001 183.04506849 59.9885754 192.90217686 C60.12349999 210.5459261 60.17402918 228.18998808 60.19801325 245.83420467 C60.20855837 252.01919081 60.24353026 258.20341325 60.29917634 264.38815308 C60.33060116 268.24327214 60.34589665 272.09834713 60.35760498 275.95357132 C60.36660508 277.73249943 60.38253729 279.51140902 60.40615654 281.29020309 C60.59647727 295.98887932 58.5769077 306.97945914 48.1875 317.90625 C39.80672756 325.88150119 29.82266118 328.39151678 18.51953125 328.27734375 C7.24887426 327.38920097 -1.00499157 322.32128554 -8.6875 314.375 C-17.39569352 303.58697639 -17.68423905 292.66402411 -17.46899414 279.47851562 C-17.45778073 277.63418324 -17.44896716 275.78983496 -17.44235229 273.94548035 C-17.42413249 269.99541508 -17.3911653 266.0458528 -17.34706306 262.09599304 C-17.27939779 255.84120625 -17.25790587 249.58677354 -17.24473572 243.33166504 C-17.2009015 225.55251853 -17.10559054 207.77406122 -16.94213867 189.99560547 C-16.85210743 180.15971251 -16.80533661 170.32456125 -16.80525678 160.48824644 C-16.8027506 154.27820357 -16.74742137 148.07165159 -16.65224946 141.86237335 C-16.60567206 137.99044385 -16.60976002 134.11976145 -16.62777328 130.24764442 C-16.62611724 128.46259161 -16.60411674 126.6774142 -16.55945015 124.89291954 C-16.36155616 116.57576768 -16.2464485 110.00224134 -22.21810764 103.71080637 C-23.79465294 102.23453289 -25.40948618 100.84693119 -27.08153439 99.48044586 C-31.26517194 95.92471219 -33.57934635 91.85749896 -36 87 C-36.37511719 86.3090625 -36.75023437 85.618125 -37.13671875 84.90625 C-44.48769983 70.25894198 -44.90611207 52.44280417 -40 37 C-33.97214041 21.36074595 -24.46708497 9.28595875 -9.89453125 0.76953125 C-6.47931253 -0.6176813 -3.66575137 -0.29093265 0 0 Z " fill="#F8B24B" transform="translate(405,184)"/>
<path d="M0 0 C4.99017735 3.03619224 7.6511148 7.69901276 10.60546875 12.57421875 C12.30393449 15.202371 13.4133187 16.80192432 16.4296875 17.8203125 C20.49268993 16.5236096 22.21361082 13.51021943 24.625 10.125 C25.57158253 8.83304276 26.52196905 7.54386201 27.4765625 6.2578125 C27.88986816 5.6817627 28.30317383 5.10571289 28.72900391 4.51220703 C30.84085075 1.99957174 32.54082654 1.04655308 35.78613281 0.7175293 C39.45720888 1.04018465 42.05798559 2.02283483 45.421875 3.51953125 C46.61167969 4.04740234 47.80148437 4.57527344 49.02734375 5.11914062 C49.63819824 5.39733643 50.24905273 5.67553223 50.87841797 5.9621582 C52.75237069 6.81357711 54.63493344 7.64315725 56.51953125 8.47070312 C65.73940945 12.60911418 65.73940945 12.60911418 68 16 C68.89479107 22.81620257 67.51837956 29.63218598 66.2421875 36.3125 C66.16226563 37.199375 66.08234375 38.08625 66 39 C67.7844051 41.23994726 67.7844051 41.23994726 70.16723633 41.07177734 C71.04661865 40.9939502 71.92600098 40.91612305 72.83203125 40.8359375 C73.79560547 40.76632813 74.75917969 40.69671875 75.75195312 40.625 C77.78132926 40.45923092 79.81002103 40.28484316 81.83789062 40.1015625 C82.80533203 40.03453125 83.77277344 39.9675 84.76953125 39.8984375 C85.65229736 39.82286621 86.53506348 39.74729492 87.44458008 39.66943359 C91.01097007 40.13077801 92.48699873 41.46550216 95 44 C96.4855957 46.74560547 96.4855957 46.74560547 97.67578125 49.8671875 C98.11083984 51.00027344 98.54589844 52.13335937 98.99414062 53.30078125 C99.42919922 54.48027344 99.86425781 55.65976562 100.3125 56.875 C100.76689453 58.04675781 101.22128906 59.21851563 101.68945312 60.42578125 C105.47842456 70.46513114 105.47842456 70.46513114 105 76 C100.89386297 81.38045542 94.631376 85.34549995 89 89 C88.34 89 87.68 89 87 89 C87.99891668 94.64422851 89.46547872 96.87965469 94.10351562 100.18359375 C95.41219752 101.06300711 96.72210083 101.94060551 98.03320312 102.81640625 C98.65259766 103.25855469 99.27199219 103.70070313 99.91015625 104.15625 C100.47871338 104.53587891 101.04727051 104.91550781 101.63305664 105.30664062 C103.85345047 108.05724817 103.85308428 110.52769478 104 114 C103.07543945 117.22558594 103.07543945 117.22558594 101.61328125 120.484375 C101.08669922 121.66644531 100.56011719 122.84851563 100.01757812 124.06640625 C99.7372876 124.6711377 99.45699707 125.27586914 99.16821289 125.89892578 C98.31231499 127.75040021 97.48760465 129.6135555 96.66601562 131.48046875 C92.03780349 141.69947161 92.03780349 141.69947161 88 144 C85.08203125 144.109375 85.08203125 144.109375 81.8125 143.75 C80.6678125 143.63527344 79.523125 143.52054688 78.34375 143.40234375 C76.30060779 143.15649837 74.25855304 142.90107098 72.21875 142.62890625 C70.15304208 142.35727907 68.07652596 142.17020705 66 142 C63.56557582 143.98635379 63.56557582 143.98635379 63.8125 147.875 C63.89041556 152.69018131 64.44932101 157.43117863 65.07421875 162.203125 C64.98046228 165.73626349 64.10060337 167.17232861 62 170 C59.3996582 171.4855957 59.3996582 171.4855957 56.30078125 172.67578125 C55.17349609 173.11083984 54.04621094 173.54589844 52.88476562 173.99414062 C51.11649414 174.64672852 51.11649414 174.64672852 49.3125 175.3125 C48.15298828 175.76689453 46.99347656 176.22128906 45.79882812 176.68945312 C34.4524949 180.97899923 34.4524949 180.97899923 28 180 C25.86328125 178.49609375 25.86328125 178.49609375 24.3125 176.4375 C23.75046875 175.71175781 23.1884375 174.98601562 22.609375 174.23828125 C22.07828125 173.49964844 21.5471875 172.76101562 21 172 C20.23429687 171.00033203 20.23429687 171.00033203 19.453125 169.98046875 C16 165.37306882 16 165.37306882 16 163 C14.02 162.67 12.04 162.34 10 162 C9.7628125 162.54398438 9.525625 163.08796875 9.28125 163.6484375 C7.66614779 166.61274095 5.6554611 169.02864913 3.5 171.625 C2.7059375 172.58664063 1.911875 173.54828125 1.09375 174.5390625 C-2.66243981 178.9539871 -2.66243981 178.9539871 -6.32421875 179.453125 C-12.63898108 179.28766025 -18.16087602 176.32517475 -23.8125 173.75 C-24.94365234 173.25886719 -26.07480469 172.76773438 -27.24023438 172.26171875 C-36.65538527 168.056023 -36.65538527 168.056023 -39 164 C-39.59796871 157.5419379 -38.31817573 151.42288043 -37.14453125 145.07421875 C-36.72285605 142.06843801 -36.72285605 142.06843801 -38.13671875 140.0625 C-40.67262177 138.61645048 -42.12655716 138.89902494 -45 139.3125 C-48.98550921 139.77827 -52.92496139 140.18323701 -56.9375 140.3125 C-58.25041016 140.36857422 -58.25041016 140.36857422 -59.58984375 140.42578125 C-62.88643651 139.84340101 -63.83709841 138.52941948 -66 136 C-68.11314027 131.68004991 -69.66431735 127.14030901 -71.3125 122.625 C-71.77978516 121.40554687 -72.24707031 120.18609375 -72.72851562 118.9296875 C-73.16486328 117.74890625 -73.60121094 116.568125 -74.05078125 115.3515625 C-74.44950439 114.27729004 -74.84822754 113.20301758 -75.2590332 112.09619141 C-76.09395737 108.6073913 -75.99042882 106.43578639 -75 103 C-72.88414401 100.98323369 -70.99003994 99.4014503 -68.625 97.75 C-68.03460938 97.316875 -67.44421875 96.88375 -66.8359375 96.4375 C-64.2646405 94.56114813 -61.64843145 92.76562096 -59 91 C-58.17491291 88.15723973 -58.17491291 88.15723973 -59 85 C-61.0116272 82.73596909 -63.39400322 81.09373358 -65.875 79.375 C-74.16324742 73.46654639 -74.16324742 73.46654639 -75 70 C-74.50397565 65.69846777 -73.3968861 62.19717441 -71.6015625 58.26953125 C-71.12203125 57.21958984 -70.6425 56.16964844 -70.1484375 55.08789062 C-69.39433594 53.46657227 -69.39433594 53.46657227 -68.625 51.8125 C-68.13 50.72001953 -67.635 49.62753906 -67.125 48.50195312 C-62.25685913 37.93912874 -62.25685913 37.93912874 -58.20703125 36.25390625 C-55.21970466 35.91023151 -52.64355079 36.40603611 -49.6875 36.9375 C-45.02142894 37.72043309 -40.71945238 38.21950941 -36 38 C-33.67798601 34.7218626 -34.10223247 32.32550968 -34.6953125 28.4921875 C-35.07540242 25.38324686 -35.18723313 22.31886945 -35.25 19.1875 C-35.27578125 18.08792969 -35.3015625 16.98835938 -35.328125 15.85546875 C-34.94356627 12.5088922 -34.5586054 12.05313062 -32 10 C-27.83829883 8.01005755 -23.49773083 6.45193126 -19.1875 4.8125 C-18.01123047 4.34908203 -16.83496094 3.88566406 -15.62304688 3.40820312 C-14.48287109 2.97056641 -13.34269531 2.53292969 -12.16796875 2.08203125 C-11.12922607 1.68218018 -10.0904834 1.2823291 -9.02026367 0.87036133 C-5.82129593 -0.05149786 -3.31110659 -0.27279582 0 0 Z " fill="#0191F7" transform="translate(389,0)"/>
<path d="M0 0 C16.92930562 13.71750345 28.91520806 33.05433829 32.45898438 54.68359375 C32.79929687 56.57078125 32.79929687 56.57078125 33.14648438 58.49609375 C34.1603146 68.42318136 33.92947857 78.02137196 31.45898438 87.68359375 C30.96197021 87.44237793 30.46495605 87.20116211 29.95288086 86.95263672 C-19.9362212 62.81996699 -73.35363517 55.2880186 -126.69189453 73.41455078 C-135.55715032 76.57373451 -143.92517915 80.74345131 -152.27539062 85.046875 C-155.54101562 86.68359375 -155.54101562 86.68359375 -158.54101562 87.68359375 C-159.32308225 81.4767158 -159.69661625 75.4363222 -159.66601562 69.18359375 C-159.66988281 68.39339844 -159.67375 67.60320312 -159.67773438 66.7890625 C-159.64338774 45.80326629 -151.65386006 26.21787576 -137.54101562 10.68359375 C-136.74179688 9.7915625 -135.94257813 8.89953125 -135.11914062 7.98046875 C-99.79533067 -29.43350748 -39.87110358 -31.50424831 0 0 Z " fill="#FE4655" transform="translate(257.541015625,96.31640625)"/>
<path d="M0 0 C0.66 0 1.32 0 2 0 C2.00879936 1.53096062 2.00879936 1.53096062 2.01777649 3.09284973 C2.07493808 12.70171324 2.14766504 22.31034901 2.23571491 31.9189806 C2.28048211 36.85913786 2.31972411 41.79921145 2.34643555 46.73950195 C2.37240534 51.50532224 2.4127625 56.27082159 2.46318626 61.03644371 C2.4798979 62.85650332 2.49138535 64.67661849 2.49761391 66.49674416 C2.5072085 69.04220009 2.5352109 71.58682694 2.56762695 74.13208008 C2.56547432 75.26604218 2.56547432 75.26604218 2.5632782 76.4229126 C2.59443747 80.26304377 2.59443747 80.26304377 4.12441635 83.69288254 C6.8854356 85.61707103 9.06285325 85.38074407 12.4080658 85.38768005 C13.38772988 85.39575836 13.38772988 85.39575836 14.38718516 85.40399987 C16.57984725 85.41832939 18.77190986 85.41116384 20.96459961 85.40405273 C22.53489163 85.40975374 24.10517951 85.41671695 25.67546082 85.42485046 C29.94407017 85.44282732 34.21247446 85.441605 38.48111033 85.43590808 C42.04237435 85.43282264 45.6035986 85.4389015 49.16485697 85.44494683 C57.5652604 85.45900541 65.96556216 85.4574198 74.3659668 85.44604492 C83.03715482 85.43456296 91.70803359 85.44863757 100.37918085 85.4754414 C107.81960416 85.49758119 115.25993028 85.50423965 122.7003842 85.49836498 C127.14614073 85.49498999 131.59169901 85.49744627 136.0374279 85.51461601 C140.2178505 85.53005571 144.39781419 85.52616307 148.57821846 85.50731087 C150.11330704 85.50361664 151.6484294 85.50675773 153.18348694 85.51719666 C155.27784074 85.5303526 157.3706632 85.51890998 159.46495056 85.50120544 C160.63726195 85.50099616 161.80957335 85.50078688 163.01740932 85.50057125 C166.64560678 84.89164715 167.82834284 83.92660664 170 81 C170.40294341 78.26848626 170.56462513 75.93343422 170.54589844 73.20214844 C170.56140495 72.03084381 170.56140495 72.03084381 170.57722473 70.83587646 C170.6066738 68.26016601 170.6081523 65.68524064 170.609375 63.109375 C170.62435528 61.3214569 170.64108211 59.53355265 170.65948486 57.7456665 C170.70318789 53.04389819 170.72316397 48.34231655 170.73822021 43.64038086 C170.75778068 38.84087065 170.79975187 34.04156235 170.83984375 29.2421875 C170.9151778 19.82818724 170.96544991 10.41423209 171 1 C181.0448992 4.34829973 189.88429172 10.61344511 199 16 C199.33 52.96 199.66 89.92 200 128 C124.76 128 49.52 128 -28 128 C-27.67 91.04 -27.34 54.08 -27 16 C-18.75 11.38 -10.5 6.76 -2 2 C-1.34 1.34 -0.68 0.68 0 0 Z " fill="#FDB54C" transform="translate(108,377)"/>
<path d="M0 0 C3.60764441 3.32283038 6.38749029 7.36105329 9.328125 11.26171875 C10.53690433 12.85279274 11.76764006 14.42711955 13 16 C13.474375 16.6290625 13.94875 17.258125 14.4375 17.90625 C17.02174554 19.71522188 18.93104114 19.40095067 22 19 C25.12988234 17.45414413 25.12988234 17.45414413 28.1875 15.3125 C33.94697143 11.597792 39.58366779 8.43886097 46 6 C47.175625 5.53335938 48.35125 5.06671875 49.5625 4.5859375 C59.63009626 1.00391236 69.6068626 0.51671555 80.1875 0.5 C80.85792328 0.49559906 81.52834656 0.49119812 82.21908569 0.48666382 C95.08463632 0.45146207 107.7444793 1.99448968 119.625 7.1875 C120.32737793 7.48140625 121.02975586 7.7753125 121.75341797 8.078125 C127.63729015 10.62971575 132.85193436 13.88413371 138.0703125 17.59375 C142.00200652 19.48096313 143.86522714 19.35975752 148 18 C150.29795629 15.96693991 151.99492024 13.63011384 153.75 11.125 C154.68082462 9.8556937 155.61307121 8.58742869 156.546875 7.3203125 C157.14773926 6.47364014 157.14773926 6.47364014 157.76074219 5.60986328 C159.05723123 3.92565352 160.46798104 2.47036047 162 1 C163.46227838 30.73299364 150.48632469 61.00369367 131 83 C129.79923828 84.36898437 129.79923828 84.36898437 128.57421875 85.765625 C118.10841765 96.9337139 102.30548746 107.55092651 86.6171875 108.3359375 C65.5809013 108.74192414 49.77265344 100.87209313 34.55224609 86.55224609 C14.30308722 66.30308722 -0.11397305 33.34830163 -0.1875 4.5625 C-0.14099413 3.04109358 -0.08530679 1.51972466 0 0 Z " fill="#F2D1B4" transform="translate(113,250)"/>
<path d="M0 0 C1.72070312 1.03808594 1.72070312 1.03808594 3 3 C3.29531821 5.64212361 3.41721473 8.0605525 3.40625 10.703125 C3.41708618 11.45914001 3.42792236 12.21515503 3.43908691 12.99407959 C3.47335797 15.41280617 3.48893265 17.83106263 3.5 20.25 C3.51464247 23.42232248 3.54851354 26.59360732 3.59375 29.765625 C3.59072876 30.48566711 3.58770752 31.20570923 3.58459473 31.9475708 C3.67910253 38.40177599 5.18342095 42.90394725 9.4375 47.8125 C14.24295773 51.91472002 17.93643527 52.52155571 24.17578125 52.36328125 C28.80946225 51.76724759 31.68366936 50.24613656 35 47 C40.28084933 38.74974452 39.56942096 28.9641235 39.5625 19.5625 C39.56611293 17.23504843 39.57561354 14.90833568 39.60325623 12.58103943 C39.62000393 11.14319766 39.62295173 9.70511033 39.61024475 8.26722717 C39.64039781 5.42774392 39.6844725 3.46493505 41.30444336 1.07788086 C43.67438936 -0.42871548 45.86561935 -0.65399363 48.63671875 -0.52734375 C59.47453201 1.89101128 69.32390424 12.38896672 75.328125 21.328125 C85.32855729 37.29765001 88.17764045 55.66826432 84 74 C80.59591957 85.47055894 75.62198385 95.05481848 66.33763123 102.69018555 C61.56706445 107.13725447 59.96885194 110.89642503 59.66615295 117.38598633 C59.58926597 120.70561045 59.6498602 124.01282037 59.72290039 127.33203125 C59.72268881 129.16800602 59.71756902 131.00398573 59.70794678 132.8399353 C59.69783114 136.77538496 59.72219849 140.70852918 59.7740345 144.64364624 C59.85601571 150.87316028 59.86096635 157.10133405 59.85630798 163.33129883 C59.85812819 173.18872786 59.91238001 183.04506849 59.9885754 192.90217686 C60.12349999 210.5459261 60.17402918 228.18998808 60.19801325 245.83420467 C60.20855837 252.01919081 60.24353026 258.20341325 60.29917634 264.38815308 C60.33060116 268.24327214 60.34589665 272.09834713 60.35760498 275.95357132 C60.36660508 277.73249943 60.38253729 279.51140902 60.40615654 281.29020309 C60.59647727 295.98887932 58.5769077 306.97945914 48.1875 317.90625 C39.80672756 325.88150119 29.82266118 328.39151678 18.51953125 328.27734375 C7.24887426 327.38920097 -1.00499157 322.32128554 -8.6875 314.375 C-17.39569352 303.58697639 -17.68423905 292.66402411 -17.46899414 279.47851562 C-17.45778073 277.63418324 -17.44896716 275.78983496 -17.44235229 273.94548035 C-17.42413249 269.99541508 -17.3911653 266.0458528 -17.34706306 262.09599304 C-17.27939779 255.84120625 -17.25790587 249.58677354 -17.24473572 243.33166504 C-17.2009015 225.55251853 -17.10559054 207.77406122 -16.94213867 189.99560547 C-16.85210743 180.15971251 -16.80533661 170.32456125 -16.80525678 160.48824644 C-16.8027506 154.27820357 -16.74742137 148.07165159 -16.65224946 141.86237335 C-16.60567206 137.99044385 -16.60976002 134.11976145 -16.62777328 130.24764442 C-16.62611724 128.46259161 -16.60411674 126.6774142 -16.55945015 124.89291954 C-16.36155616 116.57576768 -16.2464485 110.00224134 -22.21810764 103.71080637 C-23.79465294 102.23453289 -25.40948618 100.84693119 -27.08153439 99.48044586 C-31.26517194 95.92471219 -33.57934635 91.85749896 -36 87 C-36.37511719 86.3090625 -36.75023437 85.618125 -37.13671875 84.90625 C-44.48769983 70.25894198 -44.90611207 52.44280417 -40 37 C-33.97214041 21.36074595 -24.46708497 9.28595875 -9.89453125 0.76953125 C-6.47931253 -0.6176813 -3.66575137 -0.29093265 0 0 Z M-13.63671875 21.546875 C-24.5055987 33.22315746 -28.79176639 45.81863271 -28.37109375 61.54296875 C-27.60049863 74.20979751 -21.85532426 85.34054215 -12.8125 94.125 C-11.48460147 95.29667517 -10.13691767 96.44671994 -8.76171875 97.5625 C-8.18035156 98.036875 -7.59898437 98.51125 -7 99 C-6.47633315 99.36719808 -5.9526663 99.73439615 -5.41313076 100.11272144 C-3.22334561 103.03724525 -3.5920874 106.12313402 -3.62818909 109.63395691 C-3.62436452 110.41900126 -3.62053996 111.20404562 -3.6165995 112.01287919 C-3.60728915 114.6522385 -3.61932181 117.29107669 -3.63110352 119.93041992 C-3.62863642 121.81933816 -3.62479894 123.70825503 -3.61968994 125.59716797 C-3.61133973 129.66998532 -3.61217001 133.74266291 -3.61987495 137.81548119 C-3.63144 144.25753137 -3.61930945 150.69940113 -3.60325623 157.14143372 C-3.56702749 173.14697168 -3.56083024 189.15250583 -3.56335449 205.15808105 C-3.56506588 217.58743095 -3.55793023 230.01663391 -3.52337593 242.4459427 C-3.50658498 248.84730406 -3.50837484 255.24830723 -3.52419865 261.64966714 C-3.53000158 265.63802467 -3.51924417 269.62621296 -3.50395203 273.6145401 C-3.50023003 275.46078473 -3.50332161 277.30705793 -3.51382256 279.15327644 C-3.52723145 281.6796521 -3.51595195 284.20479788 -3.49879456 286.73112488 C-3.50860133 287.45672881 -3.51840811 288.18233274 -3.52851206 288.92992467 C-3.42621673 296.24567021 -0.16360267 302.83639733 5 308 C11.14638148 312.93345919 16.92016814 313.72319391 24.6875 313.421875 C31.65811442 312.53410807 36.59176951 309.48050277 41 304 C47.32124936 295.18601434 46.67979446 285.6612153 46.58007812 275.3190918 C46.58034508 273.4341262 46.58288326 271.54915977 46.58750916 269.66419983 C46.59289388 265.62193772 46.58293692 261.58011387 46.5610199 257.53790855 C46.52705675 251.14649298 46.53125952 244.75544535 46.5411377 238.3639679 C46.55676659 224.80506867 46.53053535 211.24636202 46.5 197.6875 C46.46702318 183.03096567 46.44119086 168.37463705 46.46387625 153.71806651 C46.47227528 147.36340387 46.45643609 141.00940126 46.42208099 134.65483224 C46.40565543 130.70704794 46.40978259 126.7594799 46.41952705 122.81168175 C46.41978736 120.9802759 46.4114394 119.14884573 46.39388847 117.31752396 C46.37110282 114.81873709 46.37896765 112.32184416 46.39440918 109.82304382 C46.38032532 109.09736715 46.36624146 108.37169049 46.35173082 107.62402362 C46.41200725 103.70887363 46.87807048 102.14572009 49.42700958 99.09943867 C51.39211607 97.49600458 53.35230415 95.9043554 55.375 94.375 C62.99700753 87.91539013 68.55430718 77.38514328 70.75 67.6875 C71.89191436 50.84426315 69.42747335 36.46811563 58.1875 23.3125 C57.15752365 22.17793444 56.10462555 21.06202291 55 20 C54.67 20 54.34 20 54 20 C53.9906543 20.57854736 53.98130859 21.15709473 53.97167969 21.75317383 C53.43140276 48.37240622 53.43140276 48.37240622 43.08203125 59.125 C35.87200734 65.6180797 27.8269496 67.49252917 18.31640625 67.30859375 C9.55990625 66.49379575 2.86285528 62.43738898 -3 56 C-9.0876509 47.99156357 -10.31922863 40.49886729 -10.625 30.625 C-10.66367187 29.60277344 -10.70234375 28.58054688 -10.7421875 27.52734375 C-10.83597964 25.01840403 -10.92167879 22.50946236 -11 20 C-12.25421073 19.88552031 -12.25421073 19.88552031 -13.63671875 21.546875 Z " fill="#010000" transform="translate(405,184)"/>
<path d="M0 0 C-1.88352435 6.78355369 -4.1607477 13.21157701 -7.0625 19.625 C-7.45099121 20.48456299 -7.83948242 21.34412598 -8.23974609 22.22973633 C-13.71739767 34.03976272 -20.62675636 45.01864996 -29 55 C-33.2398525 54.39987382 -36.27256898 52.88177237 -40 50.8125 C-63.78977155 38.2142502 -96.13119893 35.73715049 -122 43 C-130.76935608 45.69746473 -138.89987241 49.1350159 -146.765625 53.8984375 C-149 55 -149 55 -153 55 C-156.50804428 51.0756314 -159.19852209 46.45081403 -162 42 C-162.41620605 41.34725098 -162.83241211 40.69450195 -163.26123047 40.02197266 C-168.39099718 31.9089093 -172.81656447 23.6556172 -176.5625 14.8125 C-176.89709229 14.02278809 -177.23168457 13.23307617 -177.57641602 12.41943359 C-179.2612053 8.28706545 -180.47971766 4.46872641 -181 0 C-132.95007636 -36.79498657 -48.29282212 -34.21516086 0 0 Z " fill="#D70C16" transform="translate(285,198)"/>
<path d="M0 0 C4.99017735 3.03619224 7.6511148 7.69901276 10.60546875 12.57421875 C12.30393449 15.202371 13.4133187 16.80192432 16.4296875 17.8203125 C20.49268993 16.5236096 22.21361082 13.51021943 24.625 10.125 C25.57158253 8.83304276 26.52196905 7.54386201 27.4765625 6.2578125 C27.88986816 5.6817627 28.30317383 5.10571289 28.72900391 4.51220703 C30.84085075 1.99957174 32.54082654 1.04655308 35.78613281 0.7175293 C39.45720888 1.04018465 42.05798559 2.02283483 45.421875 3.51953125 C46.61167969 4.04740234 47.80148437 4.57527344 49.02734375 5.11914062 C49.63819824 5.39733643 50.24905273 5.67553223 50.87841797 5.9621582 C52.75237069 6.81357711 54.63493344 7.64315725 56.51953125 8.47070312 C65.73940945 12.60911418 65.73940945 12.60911418 68 16 C68.89479107 22.81620257 67.51837956 29.63218598 66.2421875 36.3125 C66.16226563 37.199375 66.08234375 38.08625 66 39 C67.7844051 41.23994726 67.7844051 41.23994726 70.16723633 41.07177734 C71.04661865 40.9939502 71.92600098 40.91612305 72.83203125 40.8359375 C73.79560547 40.76632813 74.75917969 40.69671875 75.75195312 40.625 C77.78132926 40.45923092 79.81002103 40.28484316 81.83789062 40.1015625 C82.80533203 40.03453125 83.77277344 39.9675 84.76953125 39.8984375 C85.65229736 39.82286621 86.53506348 39.74729492 87.44458008 39.66943359 C91.01097007 40.13077801 92.48699873 41.46550216 95 44 C96.4855957 46.74560547 96.4855957 46.74560547 97.67578125 49.8671875 C98.11083984 51.00027344 98.54589844 52.13335937 98.99414062 53.30078125 C99.42919922 54.48027344 99.86425781 55.65976562 100.3125 56.875 C100.76689453 58.04675781 101.22128906 59.21851563 101.68945312 60.42578125 C105.47842456 70.46513114 105.47842456 70.46513114 105 76 C100.89386297 81.38045542 94.631376 85.34549995 89 89 C88.34 89 87.68 89 87 89 C87.99891668 94.64422851 89.46547872 96.87965469 94.10351562 100.18359375 C95.41219752 101.06300711 96.72210083 101.94060551 98.03320312 102.81640625 C98.65259766 103.25855469 99.27199219 103.70070313 99.91015625 104.15625 C100.47871338 104.53587891 101.04727051 104.91550781 101.63305664 105.30664062 C103.85345047 108.05724817 103.85308428 110.52769478 104 114 C103.07543945 117.22558594 103.07543945 117.22558594 101.61328125 120.484375 C101.08669922 121.66644531 100.56011719 122.84851563 100.01757812 124.06640625 C99.7372876 124.6711377 99.45699707 125.27586914 99.16821289 125.89892578 C98.31231499 127.75040021 97.48760465 129.6135555 96.66601562 131.48046875 C92.03780349 141.69947161 92.03780349 141.69947161 88 144 C85.08203125 144.109375 85.08203125 144.109375 81.8125 143.75 C80.6678125 143.63527344 79.523125 143.52054688 78.34375 143.40234375 C76.30060779 143.15649837 74.25855304 142.90107098 72.21875 142.62890625 C70.15304208 142.35727907 68.07652596 142.17020705 66 142 C63.56557582 143.98635379 63.56557582 143.98635379 63.8125 147.875 C63.89041556 152.69018131 64.44932101 157.43117863 65.07421875 162.203125 C64.98046228 165.73626349 64.10060337 167.17232861 62 170 C59.3996582 171.4855957 59.3996582 171.4855957 56.30078125 172.67578125 C55.17349609 173.11083984 54.04621094 173.54589844 52.88476562 173.99414062 C51.11649414 174.64672852 51.11649414 174.64672852 49.3125 175.3125 C48.15298828 175.76689453 46.99347656 176.22128906 45.79882812 176.68945312 C34.4524949 180.97899923 34.4524949 180.97899923 28 180 C25.86328125 178.49609375 25.86328125 178.49609375 24.3125 176.4375 C23.75046875 175.71175781 23.1884375 174.98601562 22.609375 174.23828125 C22.07828125 173.49964844 21.5471875 172.76101562 21 172 C20.23429687 171.00033203 20.23429687 171.00033203 19.453125 169.98046875 C16 165.37306882 16 165.37306882 16 163 C14.02 162.67 12.04 162.34 10 162 C9.7628125 162.54398438 9.525625 163.08796875 9.28125 163.6484375 C7.66614779 166.61274095 5.6554611 169.02864913 3.5 171.625 C2.7059375 172.58664063 1.911875 173.54828125 1.09375 174.5390625 C-2.66243981 178.9539871 -2.66243981 178.9539871 -6.32421875 179.453125 C-12.63898108 179.28766025 -18.16087602 176.32517475 -23.8125 173.75 C-24.94365234 173.25886719 -26.07480469 172.76773438 -27.24023438 172.26171875 C-36.65538527 168.056023 -36.65538527 168.056023 -39 164 C-39.59796871 157.5419379 -38.31817573 151.42288043 -37.14453125 145.07421875 C-36.72285605 142.06843801 -36.72285605 142.06843801 -38.13671875 140.0625 C-40.67262177 138.61645048 -42.12655716 138.89902494 -45 139.3125 C-48.98550921 139.77827 -52.92496139 140.18323701 -56.9375 140.3125 C-58.25041016 140.36857422 -58.25041016 140.36857422 -59.58984375 140.42578125 C-62.88643651 139.84340101 -63.83709841 138.52941948 -66 136 C-68.11314027 131.68004991 -69.66431735 127.14030901 -71.3125 122.625 C-71.77978516 121.40554687 -72.24707031 120.18609375 -72.72851562 118.9296875 C-73.16486328 117.74890625 -73.60121094 116.568125 -74.05078125 115.3515625 C-74.44950439 114.27729004 -74.84822754 113.20301758 -75.2590332 112.09619141 C-76.09395737 108.6073913 -75.99042882 106.43578639 -75 103 C-72.88414401 100.98323369 -70.99003994 99.4014503 -68.625 97.75 C-68.03460938 97.316875 -67.44421875 96.88375 -66.8359375 96.4375 C-64.2646405 94.56114813 -61.64843145 92.76562096 -59 91 C-58.17491291 88.15723973 -58.17491291 88.15723973 -59 85 C-61.0116272 82.73596909 -63.39400322 81.09373358 -65.875 79.375 C-74.16324742 73.46654639 -74.16324742 73.46654639 -75 70 C-74.50397565 65.69846777 -73.3968861 62.19717441 -71.6015625 58.26953125 C-71.12203125 57.21958984 -70.6425 56.16964844 -70.1484375 55.08789062 C-69.39433594 53.46657227 -69.39433594 53.46657227 -68.625 51.8125 C-68.13 50.72001953 -67.635 49.62753906 -67.125 48.50195312 C-62.25685913 37.93912874 -62.25685913 37.93912874 -58.20703125 36.25390625 C-55.21970466 35.91023151 -52.64355079 36.40603611 -49.6875 36.9375 C-45.02142894 37.72043309 -40.71945238 38.21950941 -36 38 C-33.67798601 34.7218626 -34.10223247 32.32550968 -34.6953125 28.4921875 C-35.07540242 25.38324686 -35.18723313 22.31886945 -35.25 19.1875 C-35.27578125 18.08792969 -35.3015625 16.98835938 -35.328125 15.85546875 C-34.94356627 12.5088922 -34.5586054 12.05313062 -32 10 C-27.83829883 8.01005755 -23.49773083 6.45193126 -19.1875 4.8125 C-18.01123047 4.34908203 -16.83496094 3.88566406 -15.62304688 3.40820312 C-14.48287109 2.97056641 -13.34269531 2.53292969 -12.16796875 2.08203125 C-11.12922607 1.68218018 -10.0904834 1.2823291 -9.02026367 0.87036133 C-5.82129593 -0.05149786 -3.31110659 -0.27279582 0 0 Z M-13.625 18.5 C-15.40777344 19.19609375 -15.40777344 19.19609375 -17.2265625 19.90625 C-18.14179688 20.2671875 -19.05703125 20.628125 -20 21 C-19.9685791 21.64026123 -19.9371582 22.28052246 -19.90478516 22.94018555 C-19.77966939 25.85559413 -19.70190935 28.77043809 -19.625 31.6875 C-19.57472656 32.69490234 -19.52445312 33.70230469 -19.47265625 34.74023438 C-19.32694037 42.09888623 -19.32694037 42.09888623 -21.28759766 44.72387695 C-22.890625 46.03125 -22.890625 46.03125 -26 48 C-27.051875 49.3921875 -27.051875 49.3921875 -28.125 50.8125 C-34.43488921 55.61350266 -44.52249085 52.99700122 -52 52 C-53.03544174 53.90881434 -54.05290085 55.82739204 -55.0625 57.75 C-55.91521484 59.35101563 -55.91521484 59.35101563 -56.78515625 60.984375 C-58.10686342 63.78389502 -58.10686342 63.78389502 -58.09375 66.1015625 C-56.66023884 68.58972829 -54.63743305 69.77694677 -52.28662109 71.34912109 C-48.43462624 74.00696703 -44.76558912 76.57734535 -43.30810547 81.18945312 C-42.95366787 83.62362772 -42.84344897 85.91600688 -42.875 88.375 C-42.88329834 89.1479541 -42.89159668 89.9209082 -42.90014648 90.71728516 C-43.17427676 94.69715441 -43.66925787 96.58496253 -46.20703125 99.76953125 C-50.69658026 103.35489137 -55.31591091 106.67034631 -60 110 C-58.02 114.95 -56.04 119.9 -54 125 C-52.59105469 124.91621094 -51.18210937 124.83242187 -49.73046875 124.74609375 C-47.8828294 124.64292607 -46.03517218 124.5400781 -44.1875 124.4375 C-42.7943457 124.35338867 -42.7943457 124.35338867 -41.37304688 124.26757812 C-40.48037109 124.21923828 -39.58769531 124.17089844 -38.66796875 124.12109375 C-37.43469849 124.05039673 -37.43469849 124.05039673 -36.17651367 123.97827148 C-34 124 -34 124 -31 125 C-30.31445052 126.32372359 -29.64999839 127.65846196 -29 129 C-27.2175458 130.73002907 -25.35991469 132.32521476 -23.4609375 133.92578125 C-20.19798922 138.55846986 -22.19488345 145.15392265 -23 150.4375 C-23.2784375 152.29181641 -23.2784375 152.29181641 -23.5625 154.18359375 C-23.706875 155.11300781 -23.85125 156.04242188 -24 157 C-21.89915791 158.00696568 -19.79420511 159.0053589 -17.6875 160 C-16.51574219 160.556875 -15.34398437 161.11375 -14.13671875 161.6875 C-11.10545833 163.19300084 -11.10545833 163.19300084 -8 163 C-6.18910695 160.88973727 -4.55577347 158.81206501 -2.9375 156.5625 C1.77116183 150.11441909 1.77116183 150.11441909 4 149 C6.78618371 148.82240626 9.52447188 148.7224377 12.3125 148.6875 C13.07240234 148.65849609 13.83230469 148.62949219 14.61523438 148.59960938 C18.38295052 148.55705481 20.48086462 148.68924995 23.7734375 150.66015625 C26.21218404 153.22297937 28.27904485 155.85491131 30.3125 158.75 C31.00988281 159.73484375 31.70726562 160.7196875 32.42578125 161.734375 C32.94527344 162.48203125 33.46476562 163.2296875 34 164 C39.54050113 163.43174347 44.03715966 161.37113483 49 159 C48.94763184 158.41621582 48.89526367 157.83243164 48.84130859 157.23095703 C47.4630689 139.558086 47.4630689 139.558086 50.98046875 134.4140625 C55.71668853 129.52737281 59.12599057 127.49100067 66 127 C68.00349261 127.31165441 70.00326516 127.64763503 72 128 C75.33511742 128.09027385 78.66446872 128.05932763 82 128 C82.8709379 126.27921959 83.72114558 124.54793677 84.5625 122.8125 C85.03816406 121.84957031 85.51382813 120.88664062 86.00390625 119.89453125 C87.14568281 116.57666291 87.3232392 115.24037316 86 112 C83.56718061 109.51715922 83.56718061 109.51715922 80.5625 107.3125 C79.57378906 106.54550781 78.58507812 105.77851562 77.56640625 104.98828125 C76.71949219 104.33214844 75.87257813 103.67601563 75 103 C72.00653886 100.00653886 72.5926394 96.69603961 72.5625 92.6875 C72.52962891 91.92759766 72.49675781 91.16769531 72.46289062 90.38476562 C72.42385591 86.30031451 72.58095293 84.53704588 75.1640625 81.2265625 C78.01365074 78.98928248 80.85931201 76.78675412 83.8125 74.6875 C84.78832031 73.99011719 85.76414062 73.29273438 86.76953125 72.57421875 C87.87361328 71.79498047 87.87361328 71.79498047 89 71 C87.43551329 65.3856009 85.83604813 60.13189662 83 55 C82.09121094 55.10828125 82.09121094 55.10828125 81.1640625 55.21875 C78.44502848 55.51993531 75.72598158 55.77005325 73 56 C72.10410156 56.07992187 71.20820313 56.15984375 70.28515625 56.2421875 C63.74607981 56.57651622 63.74607981 56.57651622 60.25 53.875 C59.5075 52.92625 58.765 51.9775 58 51 C57.46246094 50.60039063 56.92492187 50.20078125 56.37109375 49.7890625 C53.32291189 47.45518776 52.12874782 45.91945375 51.5859375 42.04296875 C51.54131781 35.65491621 52.14233579 29.32527357 53 23 C48.05 21.02 43.1 19.04 38 17 C36.35 18.93875 34.7 20.8775 33 22.875 C32.47792969 23.48327637 31.95585937 24.09155273 31.41796875 24.71826172 C28.81934187 27.47852908 28.81934187 27.47852908 28 31 C20.41 31 12.82 31 5 31 C4.34 29.68 3.68 28.36 3 27 C1.69987818 25.06065162 0.36371855 23.1451677 -1 21.25 C-1.70125 20.26515625 -2.4025 19.2803125 -3.125 18.265625 C-4.053125 17.14414062 -4.053125 17.14414062 -5 16 C-8.14029447 16 -10.71830469 17.36011949 -13.625 18.5 Z " fill="#000102" transform="translate(389,0)"/>
<path d="M0 0 C0.27972656 1.02738281 0.55945313 2.05476563 0.84765625 3.11328125 C3.38951765 12.04654074 6.4079824 19.45666947 12 27 C12.721875 28.03125 13.44375 29.0625 14.1875 30.125 C24.60497751 41.86587042 39.68536748 49.09252225 55.18505859 50.14892578 C73.82179853 51.19787685 88.6650005 47.12215056 103.125 34.8125 C113.45888085 25.11130573 119.5797447 13.68102121 123 0 C126.40312738 1.05875074 129.01353231 2.00902154 132 4 C132.28653137 6.60320224 132.37844488 8.96675544 132.34057617 11.57080078 C132.34093778 12.3640167 132.34129938 13.15723263 132.34167194 13.9744854 C132.33942837 16.54834902 132.31656318 19.12156511 132.29296875 21.6953125 C132.28855926 23.28181647 132.28549789 24.86832478 132.28381348 26.45483398 C132.26806904 32.34495577 132.22618554 38.23498421 132.1875 44.125 C132.125625 57.28375 132.06375 70.4425 132 84 C85.14 84 38.28 84 -10 84 C-10 57.6 -10 31.2 -10 4 C-3 0 -3 0 0 0 Z " fill="#22A7FC" transform="translate(133,365)"/>
<path d="M0 0 C8.85194948 6.16992212 13.61639113 13.84917339 17 24 C17.8910549 35.91968526 16.59779174 46.33008323 9 56 C1.82355697 64.20164917 -7.09059792 69.14120433 -17.9140625 70.31640625 C-30.10856027 70.80481637 -39.05667467 66.33451601 -47.87109375 58.29296875 C-54.96958697 51.04181976 -58.23154398 41.93606314 -58.5625 31.875 C-58.07056972 20.21107405 -53.63813798 11.18271479 -45.12109375 3.25 C-32.2006064 -7.19079786 -14.30548048 -8.76853912 0 0 Z " fill="#010304" transform="translate(424,58)"/>
<path d="M0 0 C-0.10441406 1.25554688 -0.20882812 2.51109375 -0.31640625 3.8046875 C-1.04075633 13.47722673 -1.04075633 13.47722673 1.93359375 22.453125 C6.61059418 27.82405614 6.61059418 27.82405614 13.03125 30.1328125 C19.07663038 30.11368155 24.9974026 29.71520309 31 29 C31.81917642 30.72601379 32.63006016 32.4559647 33.4375 34.1875 C33.88996094 35.15042969 34.34242188 36.11335938 34.80859375 37.10546875 C35.90381422 39.76631586 36.54954796 42.16784755 37 45 C36.01257813 45.68707031 35.02515625 46.37414062 34.0078125 47.08203125 C32.71334632 47.99190965 31.41908619 48.90208124 30.125 49.8125 C29.47402344 50.26431641 28.82304687 50.71613281 28.15234375 51.18164062 C27.52714844 51.62314453 26.90195312 52.06464844 26.2578125 52.51953125 C25.39373779 53.12438354 25.39373779 53.12438354 24.51220703 53.74145508 C21.62051014 56.14809013 20.99794572 58.01388106 20.453125 61.6953125 C19.81980136 70.31188715 19.81980136 70.31188715 23.09375 78.015625 C25.62714317 80.26587423 28.15565239 82.1641029 31 84 C32.33870472 84.99279779 33.67413826 85.99011465 35 87 C34.43174347 92.54050113 32.37113483 97.03715966 30 102 C28.56262294 102.02806159 27.12506577 102.04684998 25.6875 102.0625 C24.77613281 102.0728125 23.86476563 102.083125 22.92578125 102.09375 C19.99108481 101.99971433 17.26695801 101.54786358 14.375 101.0625 C11.09188004 100.71886368 9.54609368 100.68350349 6.66796875 102.3515625 C4.62841654 104.13002175 2.82176937 106.00206896 1 108 C0.195625 108.5775 -0.60875 109.155 -1.4375 109.75 C-4.14211073 113.64463945 -3.84019654 118.36569956 -4 123 C-11.27613901 121.96638025 -17.46521295 120.36137946 -24 117 C-24.87527344 116.566875 -25.75054687 116.13375 -26.65234375 115.6875 C-33.43017562 112.1892642 -39.20943494 107.94898619 -45 103 C-44.505 102.01 -44.505 102.01 -44 101 C-43.24976563 101.03480469 -42.49953125 101.06960937 -41.7265625 101.10546875 C-31.02074812 101.38862001 -23.48578154 99.57260038 -14.8125 93.20703125 C-13 92 -13 92 -11 92 C-10.72027344 91.41605469 -10.44054687 90.83210938 -10.15234375 90.23046875 C-9.0729595 88.14121992 -7.87393551 86.26126866 -6.5625 84.3125 C-0.96779678 75.27490249 0.13735167 66.59705551 -1 56 C-3.43087185 46.44532313 -8.54882929 38.2790037 -17.078125 33.1484375 C-24.10451436 29.567355 -29.48078364 27.83499553 -37.375 27.875 C-38.50808594 27.86919922 -38.50808594 27.86919922 -39.6640625 27.86328125 C-43.57585931 27.87012006 -47.18021219 28.04124848 -51 29 C-45.38655073 16.61262878 -29.92098076 8.89868994 -18 4 C-12.11291202 1.88362913 -6.28327761 0 0 0 Z " fill="#22A6FB" transform="translate(441,26)"/>
<path d="M0 0 C6 2 6 2 7 3 C7.33 39.96 7.66 76.92 8 115 C-67.24 115 -142.48 115 -220 115 C-219.67 78.04 -219.34 41.08 -219 3 C-218.67 3 -218.34 3 -218 3 C-218 35.34 -218 67.68 -218 101 C-146.06 101 -74.12 101 0 101 C0 67.67 0 34.34 0 0 Z " fill="#E2A448" transform="translate(300,390)"/>
<path d="M0 0 C12.39594943 4.95837977 27.95585294 12.69230972 34.05770874 25.16142273 C35.20799027 28.62655411 35.30743634 31.84266618 35.31884766 35.45239258 C35.32889328 36.1846405 35.3389389 36.91688843 35.34928894 37.67132568 C35.38005071 40.07905327 35.39713633 42.48667002 35.4140625 44.89453125 C35.43277981 46.56891326 35.45235364 48.24328589 35.4727478 49.91764832 C35.52401561 54.31520046 35.56366991 58.71278316 35.60089111 63.11047363 C35.64801542 68.39197539 35.7095903 73.67332612 35.76873779 78.95470428 C35.85688484 86.96974172 35.92669568 94.98475116 36 103 C24.12 103 12.24 103 0 103 C0 69.01 0 35.02 0 0 Z " fill="#22A5FA" transform="translate(321,402)"/>
<path d="M0 0 C0.33 33.99 0.66 67.98 1 103 C-10.88 103 -22.76 103 -35 103 C-34.91086931 84.35386019 -34.91086931 84.35386019 -34.83984375 76.375 C-34.79158541 70.94140346 -34.74751203 65.50800869 -34.72900391 60.07421875 C-34.71380366 55.69084064 -34.67929888 51.30799216 -34.63169098 46.92485046 C-34.61691178 45.25685747 -34.60896098 43.58878884 -34.60811615 41.92073059 C-34.58980378 23.88582625 -34.58980378 23.88582625 -28.46029663 17.36099243 C-23.56862527 12.69134845 -17.44157163 9.48568583 -11.625 6.125 C-10.61566406 5.53203125 -9.60632813 4.9390625 -8.56640625 4.328125 C-1.15673603 0 -1.15673603 0 0 0 Z " fill="#22A7FD" transform="translate(67,402)"/>
<path d="M0 0 C3.10963937 1.42525138 5.88437085 3.21778141 8.7199707 5.12280273 C25.66035517 16.44504845 42.23147483 19.94445585 62.40234375 17.60546875 C75.21907926 14.88037409 87.27786671 7.26924291 98 0 C98.78232726 13.61828936 94.17336387 24.20491545 85.37451172 34.54101562 C76.23566844 44.24150007 64.06181997 48.92090341 50.97705078 49.51733398 C35.64303362 49.79693118 24.30093334 44.42281054 12.97265625 34.1640625 C4.94310156 25.8358154 0.27854914 13.93865036 -0.125 2.4375 C-0.08375 1.633125 -0.0425 0.82875 0 0 Z " fill="#ECC6A6" transform="translate(145,353)"/>
<path d="M0 0 C4.9188752 3.00008983 9.40886592 7.45322403 11.3671875 12.96875 C12.88435109 20.24847355 12.93361216 27.01633363 9.25 33.60546875 C5.10241199 39.61703161 0.03077376 43.54858618 -7.1875 45.10546875 C-14.12504816 45.86590826 -19.39086715 45.10359275 -25.1875 41.10546875 C-30.90709349 36.02138564 -34.56884035 31.34779526 -35.484375 23.58984375 C-35.83806186 16.55540503 -34.52190227 11.68913484 -30.1875 6.10546875 C-22.19583705 -2.37770877 -10.90669644 -4.83984654 0 0 Z " fill="#DCE8F7" transform="translate(415.1875,68.89453125)"/>
<path d="M0 0 C-0.75023437 0.47308594 -1.50046875 0.94617188 -2.2734375 1.43359375 C-9.48604283 6.09362717 -15.78604079 11.0603412 -22 17 C-22.68707031 17.61230469 -23.37414062 18.22460938 -24.08203125 18.85546875 C-40.56241648 34.10063773 -49.66643825 57.72583946 -50.62353516 79.67871094 C-50.80655801 85.1185176 -50.93120623 90.55758281 -51 96 C-53.60295276 97.31495542 -56.20728033 98.62704986 -58.8125 99.9375 C-59.55048828 100.31068359 -60.28847656 100.68386719 -61.04882812 101.06835938 C-61.76103516 101.42607422 -62.47324219 101.78378906 -63.20703125 102.15234375 C-63.8616333 102.48226318 -64.51623535 102.81218262 -65.19067383 103.15209961 C-67 104 -67 104 -70 105 C-70.78206662 98.79312205 -71.15560063 92.75272845 -71.125 86.5 C-71.12886719 85.70980469 -71.13273437 84.91960937 -71.13671875 84.10546875 C-71.10237211 63.11967254 -63.11284444 43.53428201 -49 28 C-48.20078125 27.10796875 -47.4015625 26.2159375 -46.578125 25.296875 C-37.47751682 15.6577693 -14.32166343 -4.44465417 0 0 Z " fill="#D60D17" transform="translate(169,79)"/>
<path d="M0 0 C3.10963937 1.42525138 5.88437085 3.21778141 8.7199707 5.12280273 C25.66035517 16.44504845 42.23147483 19.94445585 62.40234375 17.60546875 C75.21907926 14.88037409 87.27786671 7.26924291 98 0 C98.21008163 12.02133753 98.21008163 12.02133753 97 15 C95.34027681 15.68376981 93.67183488 16.346402 92 17 C89.86307654 18.25068001 87.73919775 19.52377573 85.625 20.8125 C67.06903979 31.65689233 46.21209838 34.46457396 25.375 29.25 C6.3294998 23.76298742 6.3294998 23.76298742 3 18 C2.05078125 15.1953125 2.05078125 15.1953125 1.3125 12.125 C1.06113281 11.11695313 0.80976563 10.10890625 0.55078125 9.0703125 C-0.00403668 5.97749767 -0.09825559 3.13482106 0 0 Z " fill="#D4B295" transform="translate(145,353)"/>
<path d="M0 0 C2 1 2 1 2.69506836 2.67626953 C3.01423218 3.7685083 3.01423218 3.7685083 3.33984375 4.8828125 C3.5925 5.7092627 3.84515625 6.53571289 4.10546875 7.38720703 C4.38003906 8.29067871 4.65460938 9.19415039 4.9375 10.125 C10.0983407 26.32274731 17.30150962 42.00123558 27 56 C27.33 56.66 27.66 57.32 28 58 C26.25595212 59.01034498 24.50450439 60.00792422 22.75 61 C21.77546875 61.556875 20.8009375 62.11375 19.796875 62.6875 C17 64 17 64 13 64 C9.49195572 60.0756314 6.80147791 55.45081403 4 51 C3.58379395 50.34725098 3.16758789 49.69450195 2.73876953 49.02197266 C-2.39099718 40.9089093 -6.81656447 32.6556172 -10.5625 23.8125 C-10.89709229 23.02278809 -11.23168457 22.23307617 -11.57641602 21.41943359 C-13.2612053 17.28706545 -14.47971766 13.46872641 -15 9 C-4.77884041 1.98147041 -4.77884041 1.98147041 0 0 Z " fill="#AE0A12" transform="translate(119,189)"/>
<path d="M0 0 C3.3606591 0.56010985 4.6177945 1.09695693 7 3.5 C7.50120544 6.30822754 7.50120544 6.30822754 7.50170898 9.75976562 C7.51108994 11.05120483 7.52047089 12.34264404 7.53013611 13.67321777 C7.51965812 15.08423524 7.50828914 16.49524633 7.49609375 17.90625 C7.49624871 19.35209221 7.49773714 20.79793484 7.50050354 22.24377441 C7.50188817 25.27354298 7.48931972 28.30283851 7.46655273 31.33251953 C7.43816722 35.21665548 7.44090422 39.1000054 7.45364285 42.98419952 C7.460597 45.96965248 7.4528139 48.95492365 7.44038582 51.94035339 C7.4358687 53.37248538 7.4355368 54.80463687 7.43945122 56.23677063 C7.44236049 58.23795788 7.42370694 60.23914152 7.40405273 62.24023438 C7.39864975 63.37924194 7.39324677 64.51824951 7.38768005 65.69177246 C7 68.5 7 68.5 5.68959045 70.35998535 C2.76035923 72.33642082 0.40199695 71.97747326 -3 71.5 C-5.6133384 68.93385112 -6.86818897 67.24825965 -7.50793457 63.61657715 C-7.51111694 62.55910278 -7.51429932 61.50162842 -7.51757812 60.41210938 C-7.53018677 59.20735962 -7.54279541 58.00260986 -7.55578613 56.76135254 C-7.54768921 55.4685437 -7.53959229 54.17573486 -7.53125 52.84375 C-7.53394701 51.49523641 -7.53783117 50.14672473 -7.54284668 48.79821777 C-7.54873211 45.97710589 -7.54021068 43.15650189 -7.52148438 40.33544922 C-7.49869415 36.72716595 -7.51182254 33.12007283 -7.53577423 29.51183319 C-7.55025883 26.7287303 -7.54561431 23.94590755 -7.53526306 21.16279602 C-7.53131364 19.18807193 -7.54341856 17.21333677 -7.55578613 15.23864746 C-7.54317749 14.03389771 -7.53056885 12.82914795 -7.51757812 11.58789062 C-7.51439575 10.53041626 -7.51121338 9.47294189 -7.50793457 8.38342285 C-6.68908219 3.73499411 -4.74564475 0.79094079 0 0 Z " fill="#080602" transform="translate(426,353.5)"/>
<path d="M0 0 C1.98 0.99 1.98 0.99 4 2 C4 28.4 4 54.8 4 82 C-42.86 82 -89.72 82 -138 82 C-138 55.6 -138 29.2 -138 2 C-137.67 2 -137.34 2 -137 2 C-137 28.07 -137 54.14 -137 81 C-91.79 81 -46.58 81 0 81 C0 54.27 0 27.54 0 0 Z " fill="#0786DF" transform="translate(261,367)"/>
<path d="M0 0 C6.21257085 3.10628543 8.60378386 4.69470243 11 11 C12.66345405 20.51120097 9.86954672 29.12972174 4.625 37.0859375 C3.3125 38.75 3.3125 38.75 1 41 C0.34 41 -0.32 41 -1 41 C-0.67 27.47 -0.34 13.94 0 0 Z " fill="#E2BE9F" transform="translate(289,228)"/>
<path d="M0 0 C0.02505615 0.78012451 0.0501123 1.56024902 0.07592773 2.36401367 C0.19349944 5.97194545 0.31548005 9.57971603 0.4375 13.1875 C0.47681641 14.41404297 0.51613281 15.64058594 0.55664062 16.90429688 C0.83288057 24.95775381 1.31229827 32.97118779 2 41 C-4.15208258 36.56477767 -8.64308521 30.6291842 -10 23 C-10.98946177 9.53683167 -10.98946177 9.53683167 -8.1875 5.3125 C-7.465625 4.549375 -6.74375 3.78625 -6 3 C-5.484375 2.38125 -4.96875 1.7625 -4.4375 1.125 C-3 0 -3 0 0 0 Z " fill="#E9C3A4" transform="translate(99,229)"/>
<path d="M0 0 C0.33 0.99 0.66 1.98 1 3 C0.525625 3.94875 0.05125 4.8975 -0.4375 5.875 C-3.36191779 12.33592303 -2.96030541 19.62905137 -1.05078125 26.33203125 C1.15739863 31.98134949 3.40322883 36.05991042 8 40 C8 40.66 8 41.32 8 42 C0.68688513 39.95913073 -3.20420184 36.54447959 -7 30 C-9.52534461 24.57050908 -9.80592463 18.87755138 -9 13 C-7.04773773 7.88211722 -4.18989588 3.56917056 0 0 Z " fill="#ABD3F2" transform="translate(389,71)"/>
<path d="M0 0 C4.95 1.98 9.9 3.96 15 6 C15 6.99 15 7.98 15 9 C13.09927734 9.48919922 13.09927734 9.48919922 11.16015625 9.98828125 C9.46089549 10.42952576 7.76167911 10.87094117 6.0625 11.3125 C4.81629883 11.63250977 4.81629883 11.63250977 3.54492188 11.95898438 C-0.57869144 13.03401197 -4.5700556 14.19451432 -8.5625 15.6875 C-13.20386323 17.27279214 -17.22998958 17.16609218 -22.0625 16.6875 C-22.83271484 16.62626953 -23.60292969 16.56503906 -24.39648438 16.50195312 C-26.26571833 16.35102119 -28.13313947 16.17789831 -30 16 C-30 15.67 -30 15.34 -30 15 C-20.1 14.505 -20.1 14.505 -10 14 C-9.34 12.68 -8.68 11.36 -8 10 C-5.42552108 6.58803998 -2.70270032 3.31298749 0 0 Z " fill="#0189EA" transform="translate(427,17)"/>
</svg>
